<?xml version="1.0" encoding="utf-8"?>
<!-- Generator: Adobe Illustrator 26.0.1, SVG Export Plug-In . SVG Version: 6.00 Build 0)  -->
<svg version="1.1" xmlns="http://www.w3.org/2000/svg" xmlns:xlink="http://www.w3.org/1999/xlink" x="0px" y="0px"
	 viewBox="0 0 500 500" style="enable-background:new 0 0 500 500;" xml:space="preserve">
<style type="text/css">
	.st0{fill:url(#SVGID_1_);}
	.st1{fill:url(#SVGID_00000088115576341033076650000012099955669076383151_);}
	.st2{fill:url(#SVGID_00000051354839843563963860000009566578829191330981_);}
</style>
<g id="BACKGROUND">
</g>
<g id="OBJECTS">
	<g>
		<linearGradient id="SVGID_1_" gradientUnits="userSpaceOnUse" x1="256.6669" y1="76.3884" x2="270.3767" y2="324.6347">
			<stop  offset="0" style="stop-color:#19A582"/>
			<stop  offset="0.8545" style="stop-color:#0A4D75"/>
		</linearGradient>
		<path class="st0" d="M398.2,129.6c0-0.1,0-0.1,0-0.2c-21.2,0.5-52.9-1.4-89-13.6c-4.5-1.5-8.8-3.1-13-4.8
			c-13.3-5.3-25.2-11.3-35.6-17.4c-10.5,6.1-22.3,12.1-35.6,17.4c-4.2,1.7-8.5,3.3-12.9,4.8c-36.2,12.3-67.8,14.1-89,13.6
			c0,0.1,0,0.1,0,0.2c-0.3,4.2-0.6,10-0.6,16.9c0,28.7,4.7,78.3,34.1,127.9c6.7,11.3,14,21.5,21.7,30.5c3.3-0.7,6.5-1.8,9.7-2.6
			c1.9-0.5,3.8-0.9,5.6-1.5c-6.8-7.9-13.2-16.7-19.1-26.7c-30.3-51.2-29-102.3-27.8-120.1c15.1,0.4,36.5-0.7,61.1-7.5
			c4.1-1.1,8.3-2.4,12.6-3.8c3.7-1.3,7.3-2.6,10.7-4c7.1-2.8,13.7-5.9,19.9-9.1c3.4-1.8,6.6-3.5,9.7-5.3c3.1,1.8,6.3,3.6,9.7,5.3
			c6.1,3.2,12.7,6.3,19.9,9.1c3.5,1.4,7,2.7,10.7,4c4.3,1.5,8.5,2.7,12.6,3.8c24.7,6.7,46.1,7.8,61.2,7.5
			c1.2,17.8,2.5,69-27.8,120.1c-16.7,28.2-37.8,47.5-57.5,60.5c-10.3,6.8-20.1,12-28.8,15.8c-8.7-3.8-18.5-9-28.8-15.8
			c-3.7-2.5-7.5-5.2-11.4-8.2c-5.5,0.9-11.7,1.8-18.5,2.7c8,7,16.1,13.1,23.9,18.3c12.4,8.2,24.3,14.4,34.8,19
			c10.5-4.6,22.4-10.8,34.8-19c23.7-15.8,49.1-39,69.3-73.1c29.4-49.6,34.1-99.2,34.1-127.9C398.8,139.6,398.5,133.9,398.2,129.6z"
			/>
		
			<linearGradient id="SVGID_00000084515336140218290500000016663341098534628750_" gradientUnits="userSpaceOnUse" x1="286.3423" y1="432.9734" x2="245.7023" y2="241.5251">
			<stop  offset="0" style="stop-color:#19A582"/>
			<stop  offset="0.8545" style="stop-color:#0A4D75"/>
		</linearGradient>
		<path style="fill:url(#SVGID_00000084515336140218290500000016663341098534628750_);" d="M464.1,151.3v228.4
			c0,12-9.7,21.7-21.7,21.7H78.5c-12,0-21.7-9.7-21.7-21.7v-29c-12.7-1.3-22.1-4-27.2-5.8c8.9,0.2,18,0.4,27.2,0.5
			c3.4,0,6.7,0.1,10.1,0.1c2.7,0,5.3,0,7.9,0.1c11.8,0.1,23.3,0,34.7-0.1c-5.7,1.8-18,5.3-34.7,5.8v7.9c0,10.5,8.6,19.1,19.1,19.1
			h332.8c10.5,0,19.1-8.6,19.1-19.1V165.6c0-10.5-8.6-19.1-19.1-19.1h-28.1c0-7-0.3-12.7-0.6-16.9h44.2
			C454.4,129.6,464.1,139.3,464.1,151.3z"/>
		
			<linearGradient id="SVGID_00000047034047262070635160000004439130247902516382_" gradientUnits="userSpaceOnUse" x1="223.3764" y1="355.1173" x2="94.6018" y2="141.6353">
			<stop  offset="0" style="stop-color:#19A582"/>
			<stop  offset="0.8545" style="stop-color:#0A4D75"/>
		</linearGradient>
		<path style="fill:url(#SVGID_00000047034047262070635160000004439130247902516382_);" d="M322,232.1c-0.4-3.1-1-6.1-1.9-9
			c3.1-3.7,6.2-7.3,9.2-11l-14.7-21.4l-13.6,4.7c-2.4-1.9-5-3.6-7.8-5c-0.4-4.8-0.8-9.5-1.3-14.3l-25.5-4.7l-6.3,12.9
			c-3.1,0.4-6.1,1-9,1.9c-3.7-3.1-7.3-6.2-11-9.2l-21.4,14.7l4.7,13.6c-1.9,2.4-3.6,5-5.1,7.8c-4.8,0.4-9.5,0.8-14.3,1.3l-4.7,25.5
			l12.9,6.3c0.4,3.1,1,6.1,1.9,9c-3.1,3.7-6.2,7.3-9.2,11l3.9,5.6l10.8,15.7c5.1-1.3,21.7-6.3,32-22.3c4-6.2,5.9-12.2,6.9-16.8
			c-1.8,2.9-5.4,8-11.7,11.7c-3.5,2.1-6.8,3.2-9.3,3.8c-7.1-8.5-10.5-20.1-8.3-31.8c3.9-21,24.1-34.8,45.1-30.9
			c21,3.9,34.8,24.1,30.9,45.1c-1.6,8.5-5.9,15.9-11.8,21.3c-28.7,26.4-64.4,37.6-64.4,37.6c-6.8,2-15.4,4.2-25.5,6.4
			c-5.1,1.1-10.5,2.2-16.4,3.4c-28.8,5.5-66.8,11.1-112,15.5V165.6c0-10.5,8.6-19.1,19.1-19.1h28.3c0-6.9,0.3-12.7,0.6-16.9H78.5
			c-12,0-21.7,9.7-21.7,21.7V332c-4.8,0.4-9.6,0.8-14.5,1.2c-7.6,0.6-15.4,1.1-23.4,1.6c8,0.3,15.8,0.5,23.4,0.7
			c6.1,0.1,12.2,0.2,18.1,0.3c59.1,0.7,107.9-2.4,141.4-6.7c6.8-0.9,13-1.8,18.5-2.7c8-1.3,14.6-2.7,19.6-4.1
			c34.8-9.5,60.6-25.6,60.6-25.6c6.7-4.2,11.9-8,14.9-10.2l-4.7-13.6c1.9-2.4,3.6-5,5-7.7c4.8-0.4,9.5-0.8,14.3-1.3l4.8-25.5
			C330.6,236.4,326.3,234.2,322,232.1z"/>
	</g>
</g>
</svg>
