<svg xmlns="http://www.w3.org/2000/svg" version="1.1" xmlns:xlink="http://www.w3.org/1999/xlink" xmlns:svgjs="http://svgjs.com/svgjs" width="1440" height="560" preserveAspectRatio="none" viewBox="0 0 1440 560"><g mask="url(&quot;#SvgjsMask1005&quot;)" fill="none"><rect width="1440" height="560" x="0" y="0" fill="url(#SvgjsLinearGradient1006)"></rect><path d="M64.62 0C111.29 35 100.81 53.71 140 105C154.3 123.71 152.15 127.22 171.61 140C222.15 173.19 232.07 196.95 280 196.95C308.09 196.95 323.64 169.95 323.64 140C323.64 103.29 307.15 97.6 280 63.64C251.18 27.6 211.71 18.38 211.71 0C211.71 -13.44 245.86 0 280 0C316.84 0 319.04 -8.78 353.68 0C389.04 8.96 389.34 35.49 420 35.49C440.76 35.49 433.43 5.85 456.52 0C503.43 -11.89 508.26 0 560 0C615.78 0 626.58 -17.72 671.56 0C696.58 9.86 681.9 55.15 700 55.15C722.12 55.15 719.61 12.76 752 0C789.61 -14.81 796 0 840 0C910 0 910 0 980 0C1032.31 0 1061.99 -29.94 1084.62 0C1114.91 40.06 1112.4 82.87 1085.85 140C1060.09 195.42 1040.35 200.45 980 225.1C917.42 250.66 907.92 224.62 840 240.43C790.02 252.07 745.71 245.41 744.21 280C741.82 335.19 789.01 349.56 832.22 420C836.9 427.64 833.11 430.55 840 436.15C907 490.55 921.2 544.48 980 540C1027.2 536.4 1018.06 481.15 1052 420C1088.06 355.04 1083.85 352.04 1120 287.78C1123.23 282.04 1129.11 286.29 1130.77 280C1148.56 212.4 1129.64 203.37 1158.89 140C1194.26 63.37 1194.74 26.36 1260 0C1315.3 -22.34 1336.31 42.61 1400 42.61C1424.24 42.61 1411.46 7.42 1435.85 0C1481.46 -13.88 1516.39 -28.47 1540 0C1568.47 34.33 1547.54 66.39 1540 125.59C1538.63 136.39 1522.18 130.47 1522.18 140C1522.18 159.95 1537.02 161.13 1540 184.55C1545.93 231.13 1540 232.27 1540 280C1540 350 1540 350 1540 420C1540 481.6 1566.37 503.65 1540 543.2C1519.7 573.65 1493.58 554.37 1446.67 560C1423.58 562.77 1423.34 560 1400 560C1330 560 1330 560 1260 560C1190 560 1190 560 1120 560C1050 560 1050 560 980 560C910 560 910 560 840 560C770 560 770 560 700 560C630 560 630 560 560 560C490 560 490 560 420 560C350 560 350 560 280 560C210 560 210 560 140 560C70 560 54.69 575.31 0 560C-15.31 555.71 -14.1 531.54 0 520.8C55.9 478.21 71.49 489.68 140 453.33C166.49 439.28 190 436.31 190 420C190 403.98 166.59 401.26 140 388.66C71.59 356.26 52.66 370.87 0 330C-17.34 316.54 0 305 0 280C0 210 0 210 0 140C0 70 -22.11 47.89 0 0C10.2 -22.11 41.29 -17.5 64.62 0" stroke="rgba(77, 90, 66, 1)" stroke-width="2"></path><path d="M560 106.57C541.18 106.57 527.54 122.04 527.54 140C527.54 161.61 540.09 185.71 560 185.71C587.43 185.71 622.22 160.66 622.22 140C622.22 121.09 588.52 106.57 560 106.57" stroke="rgba(77, 90, 66, 1)" stroke-width="2"></path><path d="M560 361.05C539.21 361.05 520 388.91 520 420C520 461.46 539.03 506.15 560 506.15C581.43 506.15 604.8 461.16 604.8 420C604.8 388.61 581.61 361.05 560 361.05" stroke="rgba(77, 90, 66, 1)" stroke-width="2"></path><path d="M1400 386.78C1381.01 386.78 1360.8 397.97 1360.8 420C1360.8 472.22 1381.63 535.29 1400 535.29C1418.12 535.29 1433.79 473.25 1433.79 420C1433.79 399 1417.51 386.78 1400 386.78" stroke="rgba(51, 121, 194, 0.58)" stroke-width="2"></path><path d="M0 36.3C20.3 36.3 32.07 92.54 73.68 140C102.07 172.39 102.57 174.91 140 196C205.73 233.04 221.59 270.55 280 256.27C336.13 242.55 322.82 196.68 369.09 140C392.82 110.94 393.79 84.79 420 84.79C447.65 84.79 451.93 109.37 476.81 140C521.93 195.55 513.12 204.49 560 257.14C575.45 274.49 601.48 269.21 601.48 280C601.48 290.46 574.77 282.86 560 299.65C513.2 352.86 485.52 355.81 478.33 420C470.94 485.99 547.58 519.8 530.83 560C518.41 589.8 475.41 560 420 560C350 560 350 560 280 560C210 560 210 560 140 560C100.73 560 61.46 571.65 61.46 560C61.46 546.1 100.91 534.72 140 508.89C206.85 464.72 273.33 463.51 273.33 420C273.33 377.27 206.66 378.21 140 336.42C95 308.21 90.34 313.55 50 280C20.34 255.34 12.35 254.58 0 220C-12.65 184.58 0 180 0 140C0 88.15 -16.54 36.3 0 36.3" stroke="rgba(77, 90, 66, 1)" stroke-width="2"></path><path d="M560 54.33C533.11 54.33 507.25 16.01 507.25 0C507.25 -11.15 533.63 0 560 0C588.44 0 616.88 -11.4 616.88 0C616.88 15.76 587.93 54.33 560 54.33" stroke="rgba(51, 121, 194, 0.58)" stroke-width="2"></path><path d="M753.85 140C753.85 102.25 803.19 92.26 840 38.18C850.83 22.26 832.98 4.4 849.13 0C902.98 -14.69 914.57 0 980 0C1013.08 0 1042.97 -21.7 1046.15 0C1053.22 48.3 1028.55 73.62 1000.49 140C995.48 151.85 992.67 154.55 980 156.47C912.42 166.72 909.01 169.38 840 164.35C795.94 161.14 753.85 165.34 753.85 140" stroke="rgba(77, 90, 66, 1)" stroke-width="2"></path><path d="M1256.11 140C1256.11 137.06 1256.87 135.64 1260 134.62C1328.81 112.3 1334.38 91.55 1400 93.33C1433.66 94.24 1442.61 108.11 1458.55 140C1489.27 201.44 1510.29 225.69 1493.33 280C1481.02 319.42 1446.2 327.46 1400 327.46C1357.11 327.46 1343.69 316.18 1315.15 280C1273.69 227.45 1287.44 215.06 1260 150C1257.92 145.06 1256.11 144.75 1256.11 140" stroke="rgba(51, 121, 194, 0.58)" stroke-width="2"></path><path d="M1540 74.12C1522.64 74.12 1478.54 22.62 1478.54 0C1478.54 -14.44 1526.07 -16.8 1540 0C1556.8 20.26 1553.37 74.12 1540 74.12" stroke="rgba(51, 121, 194, 0.58)" stroke-width="2"></path><path d="M651.47 420C651.47 377.33 672.61 339.11 700 339.11C730.58 339.11 767.41 375.89 767.41 420C767.41 481.34 729.77 550 700 550C671.8 550 651.47 482.77 651.47 420" stroke="rgba(51, 121, 194, 0.58)" stroke-width="2"></path><path d="M1178.95 420C1210.42 380.4 1226.88 355.83 1260 355.83C1282.8 355.83 1278.84 386.58 1290.8 420C1315.36 488.66 1343.31 513.32 1333.04 560C1327.91 583.32 1296.52 560 1260 560C1190 560 1190 560 1120 560C1114.16 560 1108.33 563.89 1108.33 560C1108.33 549.89 1113.17 545.53 1120 532C1148.48 475.53 1140.42 468.48 1178.95 420" stroke="rgba(51, 121, 194, 0.58)" stroke-width="2"></path><path d="M1494.14 420C1494.14 377 1527.9 328.28 1540 328.28C1550.83 328.28 1540 374.14 1540 420C1540 446.6 1549.88 473.2 1540 473.2C1526.95 473.2 1494.14 449.46 1494.14 420" stroke="rgba(51, 121, 194, 0.58)" stroke-width="2"></path><path d="M414.55 140C414.55 136.04 417.19 134.08 420 134.08C422.96 134.08 426.09 135.83 426.09 140C426.09 208.79 422.89 280 420 280C417.12 280 414.55 209 414.55 140" stroke="rgba(77, 90, 66, 1)" stroke-width="2"></path><path d="M560 2.09C558.97 2.09 557.97 0.62 557.97 0C557.97 -0.43 558.99 0 560 0C561.1 0 562.19 -0.44 562.19 0C562.19 0.61 561.08 2.09 560 2.09" stroke="rgba(77, 90, 66, 1)" stroke-width="2"></path><path d="M980 68.11C957.6 68.11 925.22 20.93 925.22 0C925.22 -13.12 952.61 0 980 0C993.85 0 1007.69 -9.32 1007.69 0C1007.69 24.74 998.84 68.11 980 68.11" stroke="rgba(51, 121, 194, 0.58)" stroke-width="2"></path><path d="M1540 22.65C1534.69 22.65 1521.22 6.91 1521.22 0C1521.22 -4.41 1535.74 -5.13 1540 0C1545.13 6.19 1544.08 22.65 1540 22.65" stroke="rgba(77, 90, 66, 1)" stroke-width="2"></path><path d="M133.33 280C133.33 277.21 136.05 273.78 140 273.78C147.62 273.78 156.47 277.35 156.47 280C156.47 282.55 147.91 284.18 140 284.18C136.34 284.18 133.33 282.41 133.33 280" stroke="rgba(51, 121, 194, 0.58)" stroke-width="2"></path><path d="M377.58 420C415.75 361.87 404.96 280 420 280C434.5 280 427.21 350.15 436.67 420C446.17 490.15 464.49 504.79 457.92 560C456.16 574.79 438.96 560 420 560C350 560 350 560 280 560C216.08 560 152.17 575.7 152.17 560C152.17 542.29 218.93 531.11 280 493.18C331.64 461.11 345.75 468.46 377.58 420" stroke="rgba(51, 121, 194, 0.58)" stroke-width="2"></path><path d="M698.13 420C698.13 418.36 698.95 416.89 700 416.89C701.18 416.89 702.59 418.3 702.59 420C702.59 422.36 701.14 425 700 425C698.91 425 698.13 422.41 698.13 420" stroke="rgba(51, 121, 194, 0.58)" stroke-width="2"></path></g><defs><mask id="SvgjsMask1005"><rect width="1440" height="560" fill="#ffffff"></rect></mask><linearGradient x1="15.28%" y1="-39.29%" x2="84.72%" y2="139.29%" gradientUnits="userSpaceOnUse" id="SvgjsLinearGradient1006"><stop stop-color="#0e2a47" offset="0"></stop><stop stop-color="#00459e" offset="1"></stop></linearGradient></defs></svg>