<?xml version="1.0" encoding="utf-8"?>
<!-- Generator: Adobe Illustrator 26.0.1, SVG Export Plug-In . SVG Version: 6.00 Build 0)  -->
<svg version="1.1" xmlns="http://www.w3.org/2000/svg" xmlns:xlink="http://www.w3.org/1999/xlink" x="0px" y="0px"
	 viewBox="0 0 2560 1440" style="enable-background:new 0 0 2560 1440;" xml:space="preserve">
<style type="text/css">
	.st0{opacity:6.000000e-02;fill:#182A88;}
	.st1{fill:#F7F0E8;}
	.st2{fill:none;stroke:#182A88;stroke-miterlimit:10;}
	.st3{opacity:0.81;fill:#8ABEFF;}
</style>
<g id="BACKGROUND">
</g>
<g id="OBJECTS">
	<path class="st0" d="M30,1440c254.6-234.9,462.6-284.7,610-283.2c177.4,1.8,258.2,77.7,524.3,96.9c75.2,5.4,255.2,17,465.7-36.2
		c384.1-97.1,538.8-326.1,872.5-286.9c25.3,3,45.7,6.8,57.5,9.2c0,166.8,0,333.5,0,500.3C1716.7,1440,873.3,1440,30,1440z"/>
	<path class="st1" d="M777.5,949.5c1.2-0.6,2.5-1.1,3.8-1.7c-3.6,1.9-7.3,3.8-11.1,5.5C772.6,952,775,950.7,777.5,949.5z"/>
	<path class="st2" d="M1490.4,1485.5c13.3-22.5,28.6-42.5,48.9-57.2c48.3-34.9,114.5-32,166.8-25.6c7.3,0.9,14.7,1.9,22,2.8
		c50.2,6.6,102.2,13.5,150.6-1.9c51.5-16.3,91.1-55.4,129.3-93.1c31.5-31.1,64.1-63.2,103.4-83.1c97.1-49,212.6-14.2,292.4,23.6
		c8.7,4.1,17.6,8.5,26.1,12.8c30.1,14.9,61.2,30.3,94.2,38.7c48.1,12.2,97.3,9.5,151.1,3.7v-2.1c-53.7,5.7-102.7,8.5-150.6-3.6
		c-32.8-8.3-63.8-23.7-93.8-38.5c-8.6-4.2-17.4-8.6-26.2-12.8c-80.2-38-196.3-72.9-294.2-23.6c-39.6,20-72.3,52.2-103.9,83.4
		c-38.1,37.6-77.5,76.4-128.5,92.6c-47.9,15.2-99.6,8.4-149.7,1.8c-7.4-1-14.7-1.9-22-2.8c-52.7-6.5-119.3-9.3-168.2,26
		c-19.7,14.2-34.7,33.4-47.7,55V1485.5z"/>
	<path class="st3" d="M2441.7,823c-125.7,50.8-235.3,148.5-99.5,190.5c135.7,42,350,63.9,283.5-60.2
		C2559.3,829.3,2504.5,797.7,2441.7,823z"/>
</g>
</svg>
