<?xml version="1.0" encoding="utf-8"?>
<!-- Generator: Adobe Illustrator 26.0.1, SVG Export Plug-In . SVG Version: 6.00 Build 0)  -->
<svg version="1.1" id="Layer_1" xmlns="http://www.w3.org/2000/svg" xmlns:xlink="http://www.w3.org/1999/xlink" x="0px" y="0px"
	 viewBox="0 0 796.2 229.7" style="enable-background:new 0 0 796.2 229.7;" xml:space="preserve">
<style type="text/css">
	.st0{fill-rule:evenodd;clip-rule:evenodd;fill:#F48220;stroke:#FFFFFF;stroke-width:1.1257;stroke-miterlimit:2.6131;}
	.st1{fill-rule:evenodd;clip-rule:evenodd;fill:#355A2E;}
	.st2{fill-rule:evenodd;clip-rule:evenodd;fill:#29ABE2;stroke:#FFFFFF;stroke-width:1.15;stroke-miterlimit:2.6131;}
	.st3{fill-rule:evenodd;clip-rule:evenodd;fill:#FED307;stroke:#FFFFFF;stroke-width:1.1373;stroke-miterlimit:2.6131;}
	.st4{fill-rule:evenodd;clip-rule:evenodd;fill:#EB2127;stroke:#FFFFFF;stroke-width:1.1257;stroke-miterlimit:2.6131;}
</style>
<path class="st0" d="M534,86c-19.8,0-35.9,8.1-35.9,18c0,9.9,16.1,18,35.9,18c19.8,0,35.9-8.1,35.9-18C569.9,94.1,553.9,86,534,86
	L534,86z M543.4,77.2c29.1,0,52.8,11.9,52.8,26.5c0,14.6-23.6,26.5-52.8,26.5s-52.8-11.9-52.8-26.5C490.6,89,514.2,77.2,543.4,77.2z
	"/>
<path class="st1" d="M513.2,72.6c-14.3,14-20.4,31.2-13.7,38.4c6.7,7.2,23.8,1.6,38.1-12.4c14.3-14,20.4-31.2,13.7-38.4
	C544.6,53,527.5,58.6,513.2,72.6L513.2,72.6z M514,59.6c21-20.6,46.1-28.8,56-18.3c9.9,10.5,0.9,35.8-20.1,56.4
	c-21,20.6-46.1,28.8-56,18.3C484,105.5,493,80.3,514,59.6z"/>
<path class="st2" d="M484.9,69.5c0,20.2,7.9,36.6,17.6,36.6c9.7,0,17.6-16.4,17.6-36.6c0-20.2-7.9-36.7-17.6-36.7
	C492.8,32.9,484.9,49.3,484.9,69.5L484.9,69.5z M476.2,60c0-29.8,11.6-53.9,25.9-53.9C516.4,6.1,528,30.2,528,60
	c0,29.8-11.6,53.9-25.9,53.9C487.8,113.9,476.2,89.8,476.2,60z"/>
<path class="st3" d="M489.6,72.6c14.3,14,20.4,31.2,13.7,38.4c-6.7,7.2-23.8,1.6-38.1-12.4c-14.3-14-20.4-31.2-13.7-38.4
	C458.3,53,475.3,58.6,489.6,72.6L489.6,72.6z M488.9,59.6c-21-20.6-46.1-28.8-56-18.3C423,51.9,432,77.2,453,97.8
	c21,20.6,46.1,28.8,56,18.3C518.9,105.5,509.9,80.3,488.9,59.6z"/>
<path class="st4" d="M468.8,86c19.8,0,35.9,8.1,35.9,18c0,9.9-16.1,18-35.9,18c-19.8,0-35.9-8.1-35.9-18C432.9,94.1,449,86,468.8,86
	L468.8,86z M459.5,77.2c-29.1,0-52.8,11.9-52.8,26.5c0,14.6,23.6,26.5,52.8,26.5c29.1,0,52.8-11.9,52.8-26.5
	C512.3,89,488.6,77.2,459.5,77.2z"/>
<path class="st1" d="M120.3,105.8l-5.3,24.5H62.8l-4.4,20.5h51l-5.1,23.2H53.1l-9.3,46.4H8.7L33,105.8H120.3L120.3,105.8z
	 M190,138.1c-3.9-1.7-7.5-2.5-10.9-2.5c-4.4,0-8.5,1.3-12.3,3.8c-3.7,2.5-8,7.4-13,14.8l-0.3-0.3l3.7-16.3h-29.6l-17.5,83h31.7
	l6.5-31c2.1-9.6,5-16.7,8.8-21c3.8-4.4,8.7-6.6,14.8-6.6c1.9,0,4.1,0.3,6.5,0.9L190,138.1L190,138.1z M238.9,135.6
	c14.8,0,25.5,3.8,32.3,11.3c6.8,7.5,10.1,16.3,10.1,26.3c0,7.7-1.9,15.5-5.8,23.4c-3.9,7.9-9.7,14.2-17.5,18.8
	c-7.8,4.6-17.4,7-28.8,7c-14.4,0-25.1-3.6-32-10.8c-6.9-7.2-10.3-16.1-10.3-26.8c0-8.4,2-16.5,6.1-24.3c4.1-7.8,10.1-13.9,17.9-18.3
	C218.8,137.8,228.1,135.6,238.9,135.6L238.9,135.6z M231.2,200.9c5.9,0,10.6-3,14.1-9.1c3.4-6.1,5.2-12.8,5.2-20.2
	c0-5.4-1.3-9.1-4-11.3c-2.6-2.2-5.5-3.3-8.8-3.3c-6.7,0-11.7,3-15,9.2c-3.3,6.1-5,12.3-5,18.7c0,4.6,1.3,8.4,3.9,11.5
	C224.2,199.4,227.4,200.9,231.2,200.9L231.2,200.9z M333.1,150.3c8.7-9.8,19.3-14.7,31.8-14.7c7.5,0,13,1.9,16.8,5.8
	c3.7,3.8,5.6,8.5,5.6,14.1c0,3.3-1,9.9-3.1,19.7l-9.6,45.3H343l8.2-38.5c2-9.4,2.9-14.8,2.9-16.2c0-4.6-2.1-6.9-6.2-6.9
	c-4.7,0-8.7,2.2-12.2,6.6c-3.5,4.4-6.1,10.8-7.8,19l-7.8,36h-31.8l17.7-83h29.6l-2.7,12.5L333.1,150.3L333.1,150.3z M464.9,137.5
	l-4.8,22.7h-16.5l-6,29.3c-0.4,1.3-0.6,2.6-0.6,4c0,3.8,2.5,5.6,7.4,5.6c1.6,0,4.8-0.5,9.8-1.5l-4.7,22.8c-9.5,1.3-16.5,1.9-21,1.9
	c-8.8,0-15.1-2.1-18.8-6.4c-3.7-4.3-5.5-8.9-5.5-14c0-1.7,0.7-6.1,2.2-13.4l5.9-28.4h-11.3l4.7-22.7H417l2.7-13l35.3-17.8l-6.5,30.8
	H464.9L464.9,137.5z M521.6,105.8l-4.5,21.9h-31.6l4.4-21.9H521.6L521.6,105.8z M515.1,137.5l-17.7,83h-31.7l17.6-83H515.1
	L515.1,137.5z M613.4,199.2c-4.6,8.2-10.6,14.2-18,17.8c-7.4,3.6-16.7,5.4-27.9,5.4c-16.3,0-27.8-3.7-34.6-11
	c-6.9-7.4-10.3-16.4-10.3-27.1c0-7.4,1.6-14.4,4.8-20.9c3.2-6.5,7.5-12,13-16.5c5.5-4.4,10.9-7.4,16.2-8.9
	c5.4-1.5,11.6-2.3,18.7-2.3c15.4,0,26.4,3.4,33.1,10.1c6.7,6.7,10,15,10,24.8c0,3.2-0.7,8.8-2.1,16.7h-62.8
	c0.9,11.1,5.8,16.7,14.8,16.7c6.1,0,11-2.5,14.6-7.5L613.4,199.2L613.4,199.2z M587,171.7c0.4-1.1,0.5-2.8,0.5-4.8
	c0-4.2-1.2-7.4-3.8-9.6c-2.5-2.2-5.6-3.2-9.3-3.2c-3.9,0-7.4,1.5-10.7,4.4c-3.3,2.9-5.7,7.3-7.4,13.2H587L587,171.7z M703.5,138.1
	l-11.6,24.6c-2.4-0.6-4.6-0.9-6.5-0.9c-6.1,0-11,2.2-14.8,6.6c-3.8,4.4-6.7,11.4-8.8,21l-6.5,31h-31.7l17.5-83h29.6l-3.7,16.3
	l0.3,0.3c4.9-7.4,9.2-12.3,13-14.8c3.7-2.5,7.8-3.8,12.3-3.8C696,135.6,699.7,136.4,703.5,138.1L703.5,138.1z M787.7,157.3
	c-1.5-8-5.2-13.6-11-16.9c-5.9-3.3-14.3-4.9-25.3-4.9c-9.6,0-17.7,1.4-24.3,4c-6.6,2.7-11.5,6.4-14.8,11c-3.3,4.6-4.9,9.4-4.9,14.2
	c0,6,2.2,10.9,6.5,14.8c4.3,3.9,12.7,6.8,24.9,8.8c5.3,0.8,9,1.7,10.9,2.6c1.9,0.9,2.9,2.6,2.9,5.2c0,2.8-1.3,5-4,6.5
	c-2.7,1.5-5.7,2.3-9.2,2.3c-7.4,0-11.8-3.4-13.2-10.1l-31.2,2.7c1,8.9,4.6,15.2,10.7,19.1c6.1,3.9,15.7,5.8,28.9,5.8
	c16.1,0,28-3,35.9-9.1c7.9-6,11.8-13.3,11.8-21.9c0-6.1-2-11-6-14.7c-4-3.7-12.1-6.4-24.2-8.2c-7.5-1.1-12.2-2.3-13.9-3.6
	c-1.7-1.3-2.6-2.9-2.6-4.8c0-1.9,1-3.5,2.9-4.9c2-1.4,4.9-2.1,8.7-2.1c6.5,0,10.2,2.5,11.1,7.5L787.7,157.3z"/>
</svg>
